<svg xmlns="http://www.w3.org/2000/svg" width="232.868" height="61.724" viewBox="0 0 232.868 61.724"><defs><style>.a{fill:#fff;}</style></defs><g transform="translate(0 5.907)"><path class="a" d="M24.174,46.185,48.1,32.6H.4Z" transform="translate(-0.4 9.632)"/><path class="a" d="M40.326,18.176,16.7,4,40.326,45.494Z" transform="translate(7.369 -4)"/><path class="a" d="M.4,18.176,23.879,4,.4,45.494Z" transform="translate(-0.4 -4)"/></g><g transform="translate(55.227)"><g transform="translate(0 7.236)"><path class="a" d="M51.681,4.9a13.937,13.937,0,0,0-3.839,27.318l6.35-6.35H51.828a6.94,6.94,0,1,1,0-13.881h49.763V4.9Z" transform="translate(-37.8 -4.9)"/></g><path class="a" d="M75.064,19.1H57.049l-6.94,6.94c.443,0,1.034.148,1.477.148H74.916A7.4,7.4,0,0,1,82.3,33.571a7.5,7.5,0,0,1-7.383,7.383H38v6.94H75.064a14.4,14.4,0,1,0,0-28.795Z" transform="translate(-37.705 9.104)"/><g transform="translate(103.366)"><path class="a" d="M170.115,2.51,164.5,7.826,139.253,32.634l-25.4-25.4H107.8V55.965L108.834,57h4.725l1.034-1.034V17.72l24.069,24.069h1.181L165.685,15.8,182.076,0Z" transform="translate(-107.8)"/><path class="a" d="M145.8,16.693V52.28h6.645V9.9Z" transform="translate(-89.687 4.719)"/></g><path class="a" d="M110.716,32.661A13.891,13.891,0,0,0,109.978,4.9H86.352v6.94H109.83a6.94,6.94,0,1,1,0,13.881H80.74V13.908H73.8V54.515h6.94V32.809H102l21.264,21.854H130.8v-1.92Z" transform="translate(-20.641 2.336)"/></g></svg>